<svg width="204" height="458" viewBox="0 0 204 458" fill="none" xmlns="http://www.w3.org/2000/svg">
<path d="M11.2001 358.113C19.124 370.257 30.3682 378.897 42.9744 383.619C61.9461 390.725 83.9645 388.939 102.207 376.918C102.255 376.896 102.301 376.871 102.346 376.844C102.39 376.816 102.434 376.789 102.475 376.76L102.54 376.715C102.584 376.685 102.627 376.655 102.668 376.627L167.555 333.198L187.946 408.567C187.964 408.647 187.989 408.713 188.01 408.784C188.02 408.817 188.029 408.85 188.038 408.887C197.742 444.121 234.047 464.681 269.091 454.74C304.165 444.813 324.962 408.006 315.586 372.647L315.568 372.56C315.554 372.488 315.542 372.433 315.513 372.37L295.227 297.003L372.674 300.089C409.054 301.54 440.114 272.792 441.869 236.029C443.625 199.269 415.465 168.156 379.066 166.663L301.655 163.484L329.149 89.9825C342.041 55.4641 324.845 16.9969 290.797 4.24421C256.748 -8.50843 218.513 9.198 205.547 43.7239L177.983 117.128L117.53 68.6707C117.503 68.6605 117.472 68.642 117.442 68.6199C117.403 68.5919 117.365 68.5575 117.337 68.527C88.9276 45.8899 47.3818 50.8949 24.609 79.7142C1.8367 108.532 6.29343 150.44 34.4851 173.281C34.5115 173.301 34.534 173.322 34.5555 173.343L34.6525 173.43L34.6974 173.467L95.0848 222.005L30.279 265.502C30.2518 265.528 30.2172 265.55 30.1824 265.573C30.1473 265.595 30.1126 265.618 30.0855 265.644C-0.242753 286.132 -8.72298 327.587 11.2001 358.113Z" fill="#3085C3"/>
</svg>
